<svg width="76" height="76" viewBox="0 0 76 76" fill="none" xmlns="http://www.w3.org/2000/svg">
    <circle cx="38" cy="38" r="37.2158" fill="black"/>
    <path d="M20.4667 51.5018C19.8431 52.115 19.8348 53.1177 20.4481 53.7413C21.0613 54.3649 22.064 54.3732 22.6876 53.76L20.4667 51.5018ZM52.2842 24.0017C52.2915 23.1271 51.5884 22.4122 50.7138 22.4049L36.4614 22.2862C35.5868 22.2789 34.8719 22.982 34.8646 23.8566C34.8573 24.7312 35.5604 25.4461 36.435 25.4534L49.1038 25.5589L48.9983 38.2277C48.991 39.1023 49.6941 39.8172 50.5687 39.8244C51.4433 39.8317 52.1582 39.1286 52.1655 38.254L52.2842 24.0017ZM22.6876 53.76L51.811 25.1176L49.5901 22.8594L20.4667 51.5018L22.6876 53.76Z" fill="white"/>
</svg>
