<svg width="318" height="80" viewBox="0 0 318 80" fill="none" xmlns="http://www.w3.org/2000/svg">
<g clip-path="url(#clip0_229_24)">
<path d="M102.417 76.9909C102.138 77.3223 102.18 77.8175 102.512 78.0964C102.843 78.376 103.338 78.3341 103.617 78.0024L102.417 76.9909ZM128.889 50.1652L129.18 49.4363L129.158 49.4277L129.136 49.4205L128.889 50.1652ZM131.087 51.8523L131.669 51.3267L131.656 51.3113L131.641 51.2968L131.087 51.8523ZM132.609 53.5394L133.211 53.0363L133.202 53.0248L133.192 53.0137L132.609 53.5394ZM135.145 56.5762L134.543 57.0793L134.545 57.0824L135.145 56.5762ZM137.85 59.7818L137.251 60.288L137.309 60.3564L137.38 60.4101L137.85 59.7818ZM138.527 60.2879L138.057 60.9163L138.113 60.9586L138.176 60.9901L138.527 60.2879ZM139.203 60.6253L138.853 61.3276L138.947 61.3744L139.049 61.3949L139.203 60.6253ZM140.049 60.7941L139.895 61.5636L139.971 61.5789H140.049V60.7941ZM147.658 55.2266L148.285 54.755L148.278 54.7452L148.27 54.7356L147.658 55.2266ZM146.982 54.383L147.594 53.892L147.589 53.8859L147.584 53.8799L146.982 54.383ZM144.445 51.3462L145.048 50.8431L145.044 50.8386L144.445 51.3462ZM140.726 46.9596L140.118 47.4572L140.123 47.4623L140.127 47.4673L140.726 46.9596ZM139.203 45.1038L139.811 44.6061L139.806 44.6007L139.203 45.1038ZM136.667 42.0669L136.04 42.5386L136.051 42.5546L136.065 42.57L136.667 42.0669ZM135.991 40.886L135.221 41.0402L135.23 41.0882L135.246 41.1347L135.991 40.886ZM137.85 36.162L138.44 36.6794L138.449 36.6697L138.458 36.6596L137.85 36.162ZM140.894 32.4503L140.299 31.9389L140.293 31.9458L140.287 31.9527L140.894 32.4503ZM142.924 30.0884L143.519 30.5998L143.523 30.5946L143.527 30.5894L142.924 30.0884ZM146.982 25.1957L147.585 25.6968L147.595 25.6851L147.605 25.6731L146.982 25.1957ZM149.18 22.3276L148.563 21.8425L148.557 21.8502L149.18 22.3276ZM164.567 2.75694L165.185 3.242L166.164 1.99619L164.579 1.97224L164.567 2.75694ZM153.407 2.58822L153.419 1.80352L153.044 1.79785L152.804 2.08626L153.407 2.58822ZM124.83 28.0638L124.248 28.5895L124.262 28.6048L124.276 28.6194L124.83 28.0638ZM123.309 26.3767L122.708 26.8829L122.717 26.8927L122.726 26.9024L123.309 26.3767ZM120.603 23.1712L121.202 22.665L121.193 22.6536L121.183 22.6426L120.603 23.1712ZM118.912 21.3153L119.492 20.7868L119.48 20.773L119.466 20.7598L118.912 21.3153ZM110.288 27.0516L109.69 27.5591L109.691 27.5608L110.288 27.0516ZM117.898 45.1038L117.32 44.5728L117.307 44.5865L117.295 44.6007L117.898 45.1038ZM112.825 51.1775L113.425 51.6829L113.427 51.6805L112.825 51.1775ZM109.274 55.3953L109.861 55.9162L109.867 55.9085L109.874 55.9007L109.274 55.3953ZM89.6591 77.4966L89.0719 76.9757L87.9131 78.2812H89.6591V77.4966ZM103.617 78.0024L125.633 51.8761L124.433 50.8647L102.417 76.9909L103.617 78.0024ZM126.697 51.0388L126.895 50.9401L126.194 49.5356L125.996 49.6343L126.697 51.0388ZM127.569 50.7813H127.874V49.2116H127.569V50.7813ZM128.615 50.9012L128.641 50.9098L129.136 49.4205L129.111 49.4119L128.615 50.9012ZM129.825 51.7011L130.533 52.4078L131.641 51.2968L130.933 50.59L129.825 51.7011ZM130.504 52.3779L132.026 54.0651L133.192 53.0137L131.669 51.3267L130.504 52.3779ZM132.006 54.0425L134.543 57.0793L135.748 56.0732L133.211 53.0363L132.006 54.0425ZM134.545 57.0824L137.251 60.288L138.451 59.2756L135.745 56.07L134.545 57.0824ZM137.38 60.4101L138.057 60.9163L138.997 59.6596L138.321 59.1535L137.38 60.4101ZM138.176 60.9901L138.853 61.3276L139.553 59.9231L138.877 59.5857L138.176 60.9901ZM139.049 61.3949L139.895 61.5636L140.202 60.0245L139.357 59.8558L139.049 61.3949ZM140.049 61.5789H141.908V60.0092H140.049V61.5789ZM141.908 61.5789H144.614V60.0092H141.908V61.5789ZM144.614 61.5789H145.511V60.0092H144.614V61.5789ZM147.557 60.9605L147.585 60.9413L146.716 59.6345L146.687 59.6537L147.557 60.9605ZM147.585 60.9413L147.866 60.7542L146.997 59.4474L146.716 59.6345L147.585 60.9413ZM148.405 60.3144L148.442 60.2765L147.334 59.1654L147.296 59.2033L148.405 60.3144ZM149.338 58.5405L149.409 58.1114L147.861 57.8527L147.79 58.2819L149.338 58.5405ZM149.457 57.5293V57.4536H147.887V57.5293H149.457ZM149.132 56.0794L149.056 55.9271L147.653 56.6303L147.729 56.7826L149.132 56.0794ZM148.539 55.0925L148.285 54.755L147.031 55.6981L147.285 56.0356L148.539 55.0925ZM148.27 54.7356L147.594 53.892L146.369 54.8739L147.046 55.7175L148.27 54.7356ZM147.584 53.8799L146.739 52.8676L145.534 53.8738L146.379 54.8861L147.584 53.8799ZM146.739 52.8676L145.048 50.8431L143.843 51.8492L145.534 53.8738L146.739 52.8676ZM145.044 50.8386L143.184 48.6453L141.987 49.6605L143.846 51.8537L145.044 50.8386ZM143.184 48.6453L141.324 46.452L140.127 47.4673L141.987 49.6605L143.184 48.6453ZM141.332 46.462L139.811 44.6061L138.597 45.6014L140.118 47.4572L141.332 46.462ZM139.806 44.6007L138.115 42.5761L136.91 43.5823L138.601 45.6069L139.806 44.6007ZM138.115 42.5761L137.269 41.5639L136.065 42.57L136.91 43.5823L138.115 42.5761ZM137.294 41.5954L137.108 41.3471L135.853 42.2902L136.04 42.5386L137.294 41.5954ZM136.76 40.7317L136.647 40.1691L135.108 40.4775L135.221 41.0402L136.76 40.7317ZM136.757 38.9738L136.788 38.8951L135.332 38.311L135.3 38.3897L136.757 38.9738ZM136.969 38.531L137.072 38.361L135.727 37.5521L135.625 37.7221L136.969 38.531ZM137.599 37.6389L138.44 36.6794L137.261 35.6446L136.419 36.604L137.599 37.6389ZM138.458 36.6596L139.979 34.8038L138.766 33.8085L137.244 35.6644L138.458 36.6596ZM139.979 34.8038L141.501 32.9479L140.287 31.9527L138.766 33.8085L139.979 34.8038ZM141.49 32.9618L143.519 30.5998L142.328 29.577L140.299 31.9389L141.49 32.9618ZM143.527 30.5894L147.585 25.6968L146.378 24.6947L142.319 29.5873L143.527 30.5894ZM147.605 25.6731L149.803 22.805L148.557 21.8502L146.359 24.7183L147.605 25.6731ZM149.797 22.8126L165.185 3.242L163.95 2.27187L148.563 21.8425L149.797 22.8126ZM164.579 1.97224L153.419 1.80352L153.395 3.37292L164.555 3.54163L164.579 1.97224ZM152.804 2.08626L130.826 28.5003L132.032 29.5043L154.01 3.09018L152.804 2.08626ZM130.207 29.0564L130.197 29.0634L131.066 30.3702L131.076 30.3632L130.207 29.0564ZM127.9 29.4354L127.86 29.4246L127.448 30.9391L127.487 30.95L127.9 29.4354ZM126.538 28.6588L125.385 27.5083L124.276 28.6194L125.429 29.7699L126.538 28.6588ZM125.413 27.5382L123.891 25.851L122.726 26.9024L124.248 28.5895L125.413 27.5382ZM123.908 25.8705L121.202 22.665L120.003 23.6773L122.708 26.8829L123.908 25.8705ZM121.183 22.6426L119.492 20.7868L118.332 21.8439L120.023 23.6997L121.183 22.6426ZM119.466 20.7598L119.153 20.4464L118.044 21.5575L118.358 21.8709L119.466 20.7598ZM115.276 18.8434H113.67V20.413H115.276V18.8434ZM113.67 18.8434H111.617V20.413H113.67V18.8434ZM110.506 18.9532L109.999 19.0545L110.305 20.5938L110.813 20.4924L110.506 18.9532ZM107.459 20.991L107.352 21.204L108.756 21.9072L108.863 21.6941L107.459 20.991ZM107.352 24.4635L107.499 24.7556L108.903 24.0525L108.756 23.7603L107.352 24.4635ZM108.159 25.7534L109.69 27.5591L110.887 26.5439L109.355 24.7382L108.159 25.7534ZM109.691 27.5608L118.865 38.3204L120.06 37.302L110.886 26.5424L109.691 27.5608ZM119.487 39.322L119.529 39.4194L120.972 38.8L120.93 38.7025L119.487 39.322ZM119.362 42.1908L119.319 42.2659L120.681 43.046L120.724 42.9709L119.362 42.1908ZM118.85 42.9075L117.32 44.5728L118.475 45.6347L120.006 43.9694L118.85 42.9075ZM117.295 44.6007L112.222 50.6744L113.427 51.6805L118.499 45.6069L117.295 44.6007ZM112.225 50.672L108.673 54.8898L109.874 55.9007L113.425 51.6829L112.225 50.672ZM108.687 54.8743L89.0719 76.9757L90.2463 78.0172L109.861 55.9162L108.687 54.8743ZM89.6591 78.2812H102.848V76.7118H89.6591V78.2812ZM107.499 24.7556C107.679 25.1133 107.9 25.4482 108.159 25.7534L109.355 24.7382C109.178 24.5285 109.025 24.2982 108.903 24.0525L107.499 24.7556ZM108.385 19.8243C107.999 20.1452 107.684 20.5424 107.459 20.991L108.863 21.6941C108.99 21.4392 109.17 21.2135 109.389 21.0312L108.385 19.8243ZM109.999 19.0545C109.405 19.173 108.851 19.4375 108.385 19.8243L109.389 21.0312C109.653 20.8114 109.968 20.661 110.305 20.5938L109.999 19.0545ZM111.617 18.8434C111.244 18.8434 110.872 18.8801 110.506 18.9532L110.813 20.4924C111.078 20.4396 111.348 20.413 111.617 20.413V18.8434ZM116.256 18.9316C115.933 18.8729 115.605 18.8434 115.276 18.8434V20.413C115.511 20.413 115.745 20.434 115.975 20.4759L116.256 18.9316ZM119.153 20.4464C118.363 19.6589 117.353 19.1306 116.256 18.9316L115.975 20.4759C116.759 20.618 117.48 20.9953 118.044 21.5575L119.153 20.4464ZM127.86 29.4246C127.36 29.2886 126.904 29.0246 126.538 28.6588L125.429 29.7699C125.989 30.3285 126.685 30.7315 127.448 30.9391L127.86 29.4246ZM127.874 50.7813C128.126 50.7813 128.376 50.8217 128.615 50.9012L129.111 49.4119C128.712 49.2793 128.294 49.2116 127.874 49.2116V50.7813ZM129.247 29.4674C128.802 29.5661 128.339 29.5552 127.9 29.4354L127.487 30.95C128.173 31.1365 128.893 31.1535 129.587 30.9998L129.247 29.4674ZM127.093 50.8585C127.247 50.8073 127.407 50.7813 127.569 50.7813V49.2116C127.239 49.2116 126.911 49.2648 126.597 49.3691L127.093 50.8585ZM130.826 28.5003C130.647 28.7146 130.439 28.902 130.207 29.0564L131.076 30.3632C131.435 30.1246 131.757 29.8353 132.032 29.5043L130.826 28.5003ZM136.606 39.7559C136.606 39.488 136.657 39.2225 136.757 38.9738L135.3 38.3897C135.126 38.8241 135.037 39.2879 135.037 39.7559H136.606ZM136.647 40.1691C136.62 40.033 136.606 39.8947 136.606 39.7559H135.037C135.037 39.9983 135.06 40.24 135.108 40.4775L136.647 40.1691ZM137.108 41.3471C136.946 41.1321 136.82 40.8924 136.735 40.6373L135.246 41.1347C135.385 41.55 135.59 41.9402 135.853 42.2902L137.108 41.3471ZM118.865 38.3204C119.122 38.6212 119.332 38.9588 119.487 39.322L120.93 38.7025C120.712 38.1947 120.419 37.7225 120.06 37.302L118.865 38.3204ZM148.442 60.2765C148.686 60.0337 148.889 59.7532 149.042 59.4459L147.639 58.7427C147.56 58.8991 147.458 59.0419 147.334 59.1654L148.442 60.2765ZM147.866 60.7542C148.06 60.6257 148.24 60.4784 148.405 60.3144L147.296 59.2033C147.205 59.2944 147.105 59.376 146.997 59.4474L147.866 60.7542ZM136.788 38.8951C136.839 38.7691 136.899 38.6473 136.969 38.531L135.625 37.7221C135.512 37.9103 135.414 38.1072 135.332 38.311L136.788 38.8951ZM107.352 21.204C107.099 21.7098 106.967 22.2679 106.967 22.8337H108.537C108.537 22.512 108.612 22.1948 108.756 21.9072L107.352 21.204ZM145.511 61.5789C145.753 61.5789 145.995 61.5549 146.233 61.5074L145.926 59.9681C145.79 59.9954 145.65 60.0092 145.511 60.0092V61.5789ZM137.072 38.361C137.226 38.1051 137.402 37.8634 137.599 37.6389L136.419 36.604C136.161 36.8988 135.929 37.2161 135.727 37.5521L137.072 38.361ZM106.967 22.8337C106.967 23.3996 107.099 23.9577 107.352 24.4635L108.756 23.7603C108.612 23.4727 108.537 23.1554 108.537 22.8337H106.967ZM146.233 61.5074C146.706 61.4131 147.155 61.2273 147.557 60.9605L146.687 59.6537C146.457 59.8071 146.198 59.9139 145.926 59.9681L146.233 61.5074ZM128.597 50.894C129.057 51.0773 129.474 51.3519 129.825 51.7011L130.933 50.59C130.433 50.0908 129.836 49.6982 129.18 49.4363L128.597 50.894ZM149.056 55.9271C148.909 55.634 148.736 55.3546 148.539 55.0925L147.285 56.0356C147.425 56.2224 147.548 56.4214 147.653 56.6303L149.056 55.9271ZM119.319 42.2659C119.187 42.4965 119.029 42.7118 118.85 42.9075L120.006 43.9694C120.264 43.6877 120.491 43.3779 120.681 43.046L119.319 42.2659ZM149.299 56.4817C149.253 56.3438 149.198 56.2094 149.132 56.0794L147.729 56.7826C147.761 56.846 147.788 56.9117 147.811 56.979L149.299 56.4817ZM126.895 50.9401C126.959 50.9083 127.025 50.881 127.093 50.8585L126.597 49.3691C126.459 49.415 126.325 49.4707 126.194 49.5356L126.895 50.9401ZM119.754 41.0134C119.702 41.427 119.567 41.8314 119.362 42.1908L120.724 42.9709C121.035 42.429 121.234 41.8255 121.311 41.2086L119.754 41.0134ZM149.457 57.4536C149.457 57.1232 149.404 56.795 149.299 56.4817L147.811 56.979C147.862 57.132 147.887 57.2923 147.887 57.4536H149.457ZM126.186 51.3537C126.347 51.2337 126.518 51.1283 126.697 51.0388L125.996 49.6343C125.733 49.7658 125.482 49.9206 125.246 50.097L126.186 51.3537ZM130.197 29.0634C129.908 29.2554 129.586 29.3924 129.247 29.4674L129.587 30.9998C130.114 30.8829 130.616 30.6694 131.066 30.3702L130.197 29.0634ZM119.529 39.4194C119.626 39.6449 119.696 39.8814 119.736 40.1235L121.285 39.8648C121.223 39.4986 121.119 39.1411 120.972 38.8L119.529 39.4194ZM149.042 59.4459C149.185 59.1606 149.285 58.8554 149.338 58.5405L147.79 58.2819C147.762 58.4422 147.712 58.5974 147.639 58.7427L149.042 59.4459ZM119.736 40.1235C119.785 40.4151 119.791 40.7181 119.754 41.0134L121.311 41.2086C121.367 40.7643 121.359 40.3085 121.285 39.8648L119.736 40.1235ZM149.409 58.1114C149.441 57.919 149.457 57.7243 149.457 57.5293H147.887C147.887 57.6377 147.879 57.7458 147.861 57.8527L149.409 58.1114ZM125.633 51.8761C125.797 51.6815 125.983 51.5062 126.186 51.3537L125.246 50.097C124.947 50.3211 124.673 50.5787 124.433 50.8647L125.633 51.8761Z" fill="#F0BD1A"/>
<path d="M102.417 76.9909C102.138 77.3223 102.18 77.8175 102.512 78.0964C102.843 78.376 103.338 78.3341 103.617 78.0024L102.417 76.9909ZM128.889 50.1652L129.18 49.4363L129.158 49.4277L129.136 49.4205L128.889 50.1652ZM131.087 51.8523L131.669 51.3267L131.656 51.3113L131.641 51.2968L131.087 51.8523ZM132.609 53.5394L133.211 53.0363L133.202 53.0248L133.192 53.0137L132.609 53.5394ZM135.145 56.5762L134.543 57.0793L134.545 57.0824L135.145 56.5762ZM137.85 59.7818L137.251 60.288L137.309 60.3564L137.38 60.4101L137.85 59.7818ZM138.527 60.2879L138.057 60.9163L138.113 60.9586L138.176 60.9901L138.527 60.2879ZM139.203 60.6253L138.853 61.3276L138.947 61.3744L139.049 61.3949L139.203 60.6253ZM140.049 60.7941L139.895 61.5636L139.971 61.5789H140.049V60.7941ZM147.658 55.2266L148.285 54.755L148.278 54.7452L148.27 54.7356L147.658 55.2266ZM146.982 54.383L147.594 53.892L147.589 53.8859L147.584 53.8799L146.982 54.383ZM144.445 51.3462L145.048 50.8431L145.044 50.8386L144.445 51.3462ZM140.726 46.9596L140.118 47.4572L140.123 47.4623L140.127 47.4673L140.726 46.9596ZM139.203 45.1038L139.811 44.6061L139.806 44.6007L139.203 45.1038ZM136.667 42.0669L136.04 42.5386L136.051 42.5546L136.065 42.57L136.667 42.0669ZM135.991 40.886L135.221 41.0402L135.23 41.0882L135.246 41.1347L135.991 40.886ZM137.85 36.162L138.44 36.6794L138.449 36.6697L138.458 36.6596L137.85 36.162ZM140.894 32.4503L140.299 31.9389L140.293 31.9458L140.287 31.9527L140.894 32.4503ZM142.924 30.0884L143.519 30.5998L143.523 30.5946L143.527 30.5894L142.924 30.0884ZM146.982 25.1957L147.585 25.6968L147.595 25.6851L147.605 25.6731L146.982 25.1957ZM149.18 22.3276L148.563 21.8425L148.557 21.8502L149.18 22.3276ZM164.567 2.75694L165.185 3.242L166.164 1.99619L164.579 1.97224L164.567 2.75694ZM153.407 2.58822L153.419 1.80352L153.044 1.79785L152.804 2.08626L153.407 2.58822ZM124.83 28.0638L124.248 28.5895L124.262 28.6048L124.276 28.6194L124.83 28.0638ZM123.309 26.3767L122.708 26.8829L122.717 26.8927L122.726 26.9024L123.309 26.3767ZM120.603 23.1712L121.202 22.665L121.193 22.6536L121.183 22.6426L120.603 23.1712ZM118.912 21.3153L119.492 20.7868L119.48 20.773L119.466 20.7598L118.912 21.3153ZM110.288 27.0516L109.69 27.5591L109.691 27.5608L110.288 27.0516ZM117.898 45.1038L117.32 44.5728L117.307 44.5865L117.295 44.6007L117.898 45.1038ZM112.825 51.1775L113.425 51.6829L113.427 51.6805L112.825 51.1775ZM109.274 55.3953L109.861 55.9162L109.867 55.9085L109.874 55.9007L109.274 55.3953ZM89.6591 77.4966L89.0719 76.9757L87.9131 78.2812H89.6591V77.4966ZM103.617 78.0024L125.633 51.8761L124.433 50.8647L102.417 76.9909L103.617 78.0024ZM126.697 51.0388L126.895 50.9401L126.194 49.5356L125.996 49.6343L126.697 51.0388ZM127.569 50.7813H127.874V49.2116H127.569V50.7813ZM128.615 50.9012L128.641 50.9098L129.136 49.4205L129.111 49.4119L128.615 50.9012ZM129.825 51.7011L130.533 52.4078L131.641 51.2968L130.933 50.59L129.825 51.7011ZM130.504 52.3779L132.026 54.0651L133.192 53.0137L131.669 51.3267L130.504 52.3779ZM132.006 54.0425L134.543 57.0793L135.748 56.0732L133.211 53.0363L132.006 54.0425ZM134.545 57.0824L137.251 60.288L138.451 59.2756L135.745 56.07L134.545 57.0824ZM137.38 60.4101L138.057 60.9163L138.997 59.6596L138.321 59.1535L137.38 60.4101ZM138.176 60.9901L138.853 61.3276L139.553 59.9231L138.877 59.5857L138.176 60.9901ZM139.049 61.3949L139.895 61.5636L140.202 60.0245L139.357 59.8558L139.049 61.3949ZM140.049 61.5789H141.908V60.0092H140.049V61.5789ZM141.908 61.5789H144.614V60.0092H141.908V61.5789ZM144.614 61.5789H145.511V60.0092H144.614V61.5789ZM147.557 60.9605L147.585 60.9413L146.716 59.6345L146.687 59.6537L147.557 60.9605ZM147.585 60.9413L147.866 60.7542L146.997 59.4474L146.716 59.6345L147.585 60.9413ZM148.405 60.3144L148.442 60.2765L147.334 59.1654L147.296 59.2033L148.405 60.3144ZM149.338 58.5405L149.409 58.1114L147.861 57.8527L147.79 58.2819L149.338 58.5405ZM149.457 57.5293V57.4536H147.887V57.5293H149.457ZM149.132 56.0794L149.056 55.9271L147.653 56.6303L147.729 56.7826L149.132 56.0794ZM148.539 55.0925L148.285 54.755L147.031 55.6981L147.285 56.0356L148.539 55.0925ZM148.27 54.7356L147.594 53.892L146.369 54.8739L147.046 55.7175L148.27 54.7356ZM147.584 53.8799L146.739 52.8676L145.534 53.8738L146.379 54.8861L147.584 53.8799ZM146.739 52.8676L145.048 50.8431L143.843 51.8492L145.534 53.8738L146.739 52.8676ZM145.044 50.8386L143.184 48.6453L141.987 49.6605L143.846 51.8537L145.044 50.8386ZM143.184 48.6453L141.324 46.452L140.127 47.4673L141.987 49.6605L143.184 48.6453ZM141.332 46.462L139.811 44.6061L138.597 45.6014L140.118 47.4572L141.332 46.462ZM139.806 44.6007L138.115 42.5761L136.91 43.5823L138.601 45.6069L139.806 44.6007ZM138.115 42.5761L137.269 41.5639L136.065 42.57L136.91 43.5823L138.115 42.5761ZM137.294 41.5954L137.108 41.3471L135.853 42.2902L136.04 42.5386L137.294 41.5954ZM136.76 40.7317L136.647 40.1691L135.108 40.4775L135.221 41.0402L136.76 40.7317ZM136.757 38.9738L136.788 38.8951L135.332 38.311L135.3 38.3897L136.757 38.9738ZM136.969 38.531L137.072 38.361L135.727 37.5521L135.625 37.7221L136.969 38.531ZM137.599 37.6389L138.44 36.6794L137.261 35.6446L136.419 36.604L137.599 37.6389ZM138.458 36.6596L139.979 34.8038L138.766 33.8085L137.244 35.6644L138.458 36.6596ZM139.979 34.8038L141.501 32.9479L140.287 31.9527L138.766 33.8085L139.979 34.8038ZM141.49 32.9618L143.519 30.5998L142.328 29.577L140.299 31.9389L141.49 32.9618ZM143.527 30.5894L147.585 25.6968L146.378 24.6947L142.319 29.5873L143.527 30.5894ZM147.605 25.6731L149.803 22.805L148.557 21.8502L146.359 24.7183L147.605 25.6731ZM149.797 22.8126L165.185 3.242L163.95 2.27187L148.563 21.8425L149.797 22.8126ZM164.579 1.97224L153.419 1.80352L153.395 3.37292L164.555 3.54163L164.579 1.97224ZM152.804 2.08626L130.826 28.5003L132.032 29.5043L154.01 3.09018L152.804 2.08626ZM130.207 29.0564L130.197 29.0634L131.066 30.3702L131.076 30.3632L130.207 29.0564ZM127.9 29.4354L127.86 29.4246L127.448 30.9391L127.487 30.95L127.9 29.4354ZM126.538 28.6588L125.385 27.5083L124.276 28.6194L125.429 29.7699L126.538 28.6588ZM125.413 27.5382L123.891 25.851L122.726 26.9024L124.248 28.5895L125.413 27.5382ZM123.908 25.8705L121.202 22.665L120.003 23.6773L122.708 26.8829L123.908 25.8705ZM121.183 22.6426L119.492 20.7868L118.332 21.8439L120.023 23.6997L121.183 22.6426ZM119.466 20.7598L119.153 20.4464L118.044 21.5575L118.358 21.8709L119.466 20.7598ZM115.276 18.8434H113.67V20.413H115.276V18.8434ZM113.67 18.8434H111.617V20.413H113.67V18.8434ZM110.506 18.9532L109.999 19.0545L110.305 20.5938L110.813 20.4924L110.506 18.9532ZM107.459 20.991L107.352 21.204L108.756 21.9072L108.863 21.6941L107.459 20.991ZM107.352 24.4635L107.499 24.7556L108.903 24.0525L108.756 23.7603L107.352 24.4635ZM108.159 25.7534L109.69 27.5591L110.887 26.5439L109.355 24.7382L108.159 25.7534ZM109.691 27.5608L118.865 38.3204L120.06 37.302L110.886 26.5424L109.691 27.5608ZM119.487 39.322L119.529 39.4194L120.972 38.8L120.93 38.7025L119.487 39.322ZM119.362 42.1908L119.319 42.2659L120.681 43.046L120.724 42.9709L119.362 42.1908ZM118.85 42.9075L117.32 44.5728L118.475 45.6347L120.006 43.9694L118.85 42.9075ZM117.295 44.6007L112.222 50.6744L113.427 51.6805L118.499 45.6069L117.295 44.6007ZM112.225 50.672L108.673 54.8898L109.874 55.9007L113.425 51.6829L112.225 50.672ZM108.687 54.8743L89.0719 76.9757L90.2463 78.0172L109.861 55.9162L108.687 54.8743ZM89.6591 78.2812H102.848V76.7118H89.6591V78.2812ZM107.499 24.7556C107.679 25.1133 107.9 25.4482 108.159 25.7534L109.355 24.7382C109.178 24.5285 109.025 24.2982 108.903 24.0525L107.499 24.7556ZM108.385 19.8243C107.999 20.1452 107.684 20.5424 107.459 20.991L108.863 21.6941C108.99 21.4392 109.17 21.2135 109.389 21.0312L108.385 19.8243ZM109.999 19.0545C109.405 19.173 108.851 19.4375 108.385 19.8243L109.389 21.0312C109.653 20.8114 109.968 20.661 110.305 20.5938L109.999 19.0545ZM111.617 18.8434C111.244 18.8434 110.872 18.8801 110.506 18.9532L110.813 20.4924C111.078 20.4396 111.348 20.413 111.617 20.413V18.8434ZM116.256 18.9316C115.933 18.8729 115.605 18.8434 115.276 18.8434V20.413C115.511 20.413 115.745 20.434 115.975 20.4759L116.256 18.9316ZM119.153 20.4464C118.363 19.6589 117.353 19.1306 116.256 18.9316L115.975 20.4759C116.759 20.618 117.48 20.9953 118.044 21.5575L119.153 20.4464ZM127.86 29.4246C127.36 29.2886 126.904 29.0246 126.538 28.6588L125.429 29.7699C125.989 30.3285 126.685 30.7315 127.448 30.9391L127.86 29.4246ZM127.874 50.7813C128.126 50.7813 128.376 50.8217 128.615 50.9012L129.111 49.4119C128.712 49.2793 128.294 49.2116 127.874 49.2116V50.7813ZM129.247 29.4674C128.802 29.5661 128.339 29.5552 127.9 29.4354L127.487 30.95C128.173 31.1365 128.893 31.1535 129.587 30.9998L129.247 29.4674ZM127.093 50.8585C127.247 50.8073 127.407 50.7813 127.569 50.7813V49.2116C127.239 49.2116 126.911 49.2648 126.597 49.3691L127.093 50.8585ZM130.826 28.5003C130.647 28.7146 130.439 28.902 130.207 29.0564L131.076 30.3632C131.435 30.1246 131.757 29.8353 132.032 29.5043L130.826 28.5003ZM136.606 39.7559C136.606 39.488 136.657 39.2225 136.757 38.9738L135.3 38.3897C135.126 38.8241 135.037 39.2879 135.037 39.7559H136.606ZM136.647 40.1691C136.62 40.033 136.606 39.8947 136.606 39.7559H135.037C135.037 39.9983 135.06 40.24 135.108 40.4775L136.647 40.1691ZM137.108 41.3471C136.946 41.1321 136.82 40.8924 136.735 40.6373L135.246 41.1347C135.385 41.55 135.59 41.9402 135.853 42.2902L137.108 41.3471ZM118.865 38.3204C119.122 38.6212 119.332 38.9588 119.487 39.322L120.93 38.7025C120.712 38.1947 120.419 37.7225 120.06 37.302L118.865 38.3204ZM148.442 60.2765C148.686 60.0337 148.889 59.7532 149.042 59.4459L147.639 58.7427C147.56 58.8991 147.458 59.0419 147.334 59.1654L148.442 60.2765ZM147.866 60.7542C148.06 60.6257 148.24 60.4784 148.405 60.3144L147.296 59.2033C147.205 59.2944 147.105 59.376 146.997 59.4474L147.866 60.7542ZM136.788 38.8951C136.839 38.7691 136.899 38.6473 136.969 38.531L135.625 37.7221C135.512 37.9103 135.414 38.1072 135.332 38.311L136.788 38.8951ZM107.352 21.204C107.099 21.7098 106.967 22.2679 106.967 22.8337H108.537C108.537 22.512 108.612 22.1948 108.756 21.9072L107.352 21.204ZM145.511 61.5789C145.753 61.5789 145.995 61.5549 146.233 61.5074L145.926 59.9681C145.79 59.9954 145.65 60.0092 145.511 60.0092V61.5789ZM137.072 38.361C137.226 38.1051 137.402 37.8634 137.599 37.6389L136.419 36.604C136.161 36.8988 135.929 37.2161 135.727 37.5521L137.072 38.361ZM106.967 22.8337C106.967 23.3996 107.099 23.9577 107.352 24.4635L108.756 23.7603C108.612 23.4727 108.537 23.1554 108.537 22.8337H106.967ZM146.233 61.5074C146.706 61.4131 147.155 61.2273 147.557 60.9605L146.687 59.6537C146.457 59.8071 146.198 59.9139 145.926 59.9681L146.233 61.5074ZM128.597 50.894C129.057 51.0773 129.474 51.3519 129.825 51.7011L130.933 50.59C130.433 50.0908 129.836 49.6982 129.18 49.4363L128.597 50.894ZM149.056 55.9271C148.909 55.634 148.736 55.3546 148.539 55.0925L147.285 56.0356C147.425 56.2224 147.548 56.4214 147.653 56.6303L149.056 55.9271ZM119.319 42.2659C119.187 42.4965 119.029 42.7118 118.85 42.9075L120.006 43.9694C120.264 43.6877 120.491 43.3779 120.681 43.046L119.319 42.2659ZM149.299 56.4817C149.253 56.3438 149.198 56.2094 149.132 56.0794L147.729 56.7826C147.761 56.846 147.788 56.9117 147.811 56.979L149.299 56.4817ZM126.895 50.9401C126.959 50.9083 127.025 50.881 127.093 50.8585L126.597 49.3691C126.459 49.415 126.325 49.4707 126.194 49.5356L126.895 50.9401ZM119.754 41.0134C119.702 41.427 119.567 41.8314 119.362 42.1908L120.724 42.9709C121.035 42.429 121.234 41.8255 121.311 41.2086L119.754 41.0134ZM149.457 57.4536C149.457 57.1232 149.404 56.795 149.299 56.4817L147.811 56.979C147.862 57.132 147.887 57.2923 147.887 57.4536H149.457ZM126.186 51.3537C126.347 51.2337 126.518 51.1283 126.697 51.0388L125.996 49.6343C125.733 49.7658 125.482 49.9206 125.246 50.097L126.186 51.3537ZM130.197 29.0634C129.908 29.2554 129.586 29.3924 129.247 29.4674L129.587 30.9998C130.114 30.8829 130.616 30.6694 131.066 30.3702L130.197 29.0634ZM119.529 39.4194C119.626 39.6449 119.696 39.8814 119.736 40.1235L121.285 39.8648C121.223 39.4986 121.119 39.1411 120.972 38.8L119.529 39.4194ZM149.042 59.4459C149.185 59.1606 149.285 58.8554 149.338 58.5405L147.79 58.2819C147.762 58.4422 147.712 58.5974 147.639 58.7427L149.042 59.4459ZM119.736 40.1235C119.785 40.4151 119.791 40.7181 119.754 41.0134L121.311 41.2086C121.367 40.7643 121.359 40.3085 121.285 39.8648L119.736 40.1235ZM149.409 58.1114C149.441 57.919 149.457 57.7243 149.457 57.5293H147.887C147.887 57.6377 147.879 57.7458 147.861 57.8527L149.409 58.1114ZM125.633 51.8761C125.797 51.6815 125.983 51.5062 126.186 51.3537L125.246 50.097C124.947 50.3211 124.673 50.5787 124.433 50.8647L125.633 51.8761Z" fill="black" fill-opacity="0.2"/>
<path d="M13.502 56.7823C10.9126 56.7823 8.43113 56.4432 6.05746 55.765C3.68382 55.056 1.77257 54.1466 0.32373 53.0369L2.86692 47.3956C4.25411 48.382 5.88791 49.199 7.76829 49.8463C9.67959 50.4628 11.6062 50.7711 13.5483 50.7711C15.0279 50.7711 16.2148 50.6324 17.1087 50.3549C18.0335 50.0467 18.7117 49.6305 19.1433 49.1065C19.5749 48.5824 19.7907 47.9813 19.7907 47.3031C19.7907 46.44 19.4516 45.7618 18.7734 45.2686C18.0952 44.7445 17.2012 44.3284 16.0915 44.0201C14.9817 43.681 13.7486 43.3727 12.3923 43.0953C11.0668 42.787 9.72581 42.4172 8.36946 41.9855C7.0439 41.554 5.82626 40.9991 4.7165 40.3209C3.60675 39.6427 2.69737 38.7488 1.98836 37.639C1.31018 36.5292 0.971089 35.1112 0.971089 33.385C0.971089 31.5354 1.46431 29.8553 2.45075 28.3448C3.46803 26.8035 4.97853 25.5859 6.98225 24.6919C9.01684 23.7671 11.56 23.3047 14.6118 23.3047C16.6464 23.3047 18.6501 23.5513 20.623 24.0446C22.5959 24.5069 24.3375 25.2159 25.8481 26.1716L23.5361 31.859C22.0256 30.9959 20.5151 30.364 19.0046 29.9633C17.4941 29.5316 16.0144 29.3159 14.5656 29.3159C13.1167 29.3159 11.9299 29.4854 11.0051 29.8245C10.0803 30.1636 9.41754 30.6106 9.01684 31.1654C8.61606 31.6895 8.41567 32.306 8.41567 33.0151C8.41567 33.8474 8.75478 34.5255 9.43299 35.0496C10.1111 35.5428 11.0051 35.9435 12.1149 36.2518C13.2246 36.5601 14.4422 36.8683 15.7678 37.1766C17.1242 37.4849 18.4651 37.8394 19.7907 38.2401C21.147 38.6408 22.3801 39.1803 23.4898 39.8586C24.5996 40.5367 25.4936 41.4307 26.1717 42.5404C26.8808 43.6502 27.2352 45.0528 27.2352 46.7483C27.2352 48.567 26.7266 50.2316 25.7093 51.7421C24.6921 53.2526 23.1662 54.4703 21.1316 55.3951C19.1279 56.3198 16.5847 56.7823 13.502 56.7823Z" fill="#F6F6F6"/>
<path d="M32.3535 56.2272V23.8594H38.5496L57.6466 47.1642H54.6411V23.8594H62.0394V56.2272H55.8895L36.7463 32.9224H39.7519V56.2272H32.3535Z" fill="#F6F6F6"/>
<path d="M84.0782 56.7821C79.4848 56.7821 75.8935 55.5028 73.304 52.9442C70.7147 50.3856 69.4199 46.7326 69.4199 41.9854V23.8594H76.9108V41.7079C76.9108 44.7906 77.5427 47.0101 78.8067 48.3665C80.0704 49.7228 81.8428 50.401 84.124 50.401C86.4052 50.401 88.1776 49.7228 89.4421 48.3665C90.7057 47.0101 91.3372 44.7906 91.3372 41.7079V23.8594H98.736V41.9854C98.736 46.7326 97.4413 50.3856 94.8518 52.9442C92.2623 55.5028 88.6708 56.7821 84.0782 56.7821Z" fill="#F6F6F6"/>
<path d="M158.52 56.2272V23.8594H172.53C175.427 23.8594 177.925 24.3372 180.021 25.2928C182.117 26.2176 183.736 27.5586 184.876 29.3157C186.017 31.0728 186.587 33.169 186.587 35.6043C186.587 38.0087 186.017 40.0895 184.876 41.8466C183.736 43.6038 182.117 44.9601 180.021 45.9158C177.925 46.8405 175.427 47.3029 172.53 47.3029H162.681L166.01 43.9274V56.2272H158.52ZM166.01 44.7597L162.681 41.1993H172.114C174.426 41.1993 176.152 40.7061 177.292 39.7196C178.433 38.7332 179.003 37.3614 179.003 35.6043C179.003 33.8163 178.433 32.4292 177.292 31.4427C176.152 30.4563 174.426 29.9631 172.114 29.9631H162.681L166.01 26.4026V44.7597Z" fill="#F6F6F6"/>
<path d="M191.935 56.2272V23.8594H199.426V50.1235H215.656V56.2272H191.935Z" fill="#F6F6F6"/>
<path d="M235.02 56.7823C232.462 56.7823 230.088 56.3661 227.9 55.5338C225.742 54.7015 223.862 53.5301 222.259 52.0196C220.686 50.509 219.453 48.7365 218.559 46.702C217.696 44.6675 217.265 42.4479 217.265 40.0435C217.265 37.639 217.696 35.4195 218.559 33.385C219.453 31.3504 220.702 29.5779 222.305 28.0674C223.908 26.5569 225.789 25.3855 227.946 24.5532C230.104 23.7208 232.446 23.3047 234.975 23.3047C237.533 23.3047 239.876 23.7208 242.003 24.5532C244.161 25.3855 246.026 26.5569 247.598 28.0674C249.201 29.5779 250.45 31.3504 251.344 33.385C252.238 35.3886 252.684 37.6082 252.684 40.0435C252.684 42.4479 252.238 44.6829 251.344 46.7483C250.45 48.7828 249.201 50.5553 247.598 52.0658C246.026 53.5455 244.161 54.7015 242.003 55.5338C239.876 56.3661 237.549 56.7823 235.02 56.7823ZM234.975 50.4011C236.423 50.4011 237.749 50.1546 238.951 49.6614C240.184 49.1681 241.263 48.4591 242.188 47.5343C243.113 46.6095 243.822 45.5152 244.315 44.2513C244.839 42.9874 245.101 41.5848 245.101 40.0435C245.101 38.5021 244.839 37.0996 244.315 35.8356C243.822 34.5718 243.113 33.4774 242.188 32.5526C241.294 31.6279 240.231 30.9188 238.997 30.4256C237.765 29.9324 236.423 29.6858 234.975 29.6858C233.526 29.6858 232.185 29.9324 230.951 30.4256C229.75 30.9188 228.686 31.6279 227.761 32.5526C226.836 33.4774 226.112 34.5718 225.588 35.8356C225.095 37.0996 224.848 38.5021 224.848 40.0435C224.848 41.554 225.095 42.9566 225.588 44.2513C226.112 45.5152 226.821 46.6095 227.715 47.5343C228.64 48.4591 229.719 49.1681 230.951 49.6614C232.185 50.1546 233.526 50.4011 234.975 50.4011Z" fill="#F6F6F6"/>
<path d="M258.314 56.2272V23.8594H272.325C275.222 23.8594 277.72 24.3372 279.816 25.2928C281.912 26.2176 283.53 27.5586 284.671 29.3157C285.811 31.0728 286.381 33.169 286.381 35.6043C286.381 38.0087 285.811 40.0895 284.671 41.8466C283.53 43.5729 281.912 44.8984 279.816 45.8233C277.72 46.7481 275.222 47.2104 272.325 47.2104H262.476L265.805 43.9274V56.2272H258.314ZM278.891 56.2272L270.799 44.4823H278.798L286.982 56.2272H278.891ZM265.805 44.7597L262.476 41.2455H271.908C274.22 41.2455 275.947 40.7523 277.087 39.7659C278.228 38.7486 278.798 37.3614 278.798 35.6043C278.798 33.8163 278.228 32.4292 277.087 31.4427C275.947 30.4563 274.22 29.9631 271.908 29.9631H262.476L265.805 26.4026V44.7597Z" fill="#F6F6F6"/>
<path d="M299.206 36.899H314.789V42.7252H299.206V36.899ZM299.762 50.216H317.379V56.2272H292.317V23.8594H316.777V29.8706H299.762V50.216Z" fill="#F6F6F6"/>
<path d="M98 68.5C97.7204 68.8314 102.267 78.0197 102.599 78.2985C102.93 78.5781 103.425 78.5362 103.704 78.2045L98 68.5ZM128.976 50.3673L129.267 49.6384L129.245 49.6299L129.223 49.6226L128.976 50.3673ZM131.174 52.0544L131.756 51.5288L131.743 51.5134L131.728 51.4989L131.174 52.0544ZM132.696 53.7416L133.298 53.2385L133.289 53.227L133.278 53.2159L132.696 53.7416ZM135.232 56.7784L134.63 57.2814L134.632 57.2845L135.232 56.7784ZM137.937 59.984L137.337 60.4901L137.396 60.5586L137.467 60.6122L137.937 59.984ZM138.614 60.4901L138.144 61.1184L138.2 61.1607L138.263 61.1923L138.614 60.4901ZM139.29 60.8275L138.94 61.5297L139.034 61.5766L139.136 61.5971L139.29 60.8275ZM140.136 60.9962L139.982 61.7658L140.058 61.781H140.136V60.9962ZM147.745 55.4287L148.372 54.9572L148.365 54.9473L148.357 54.9377L147.745 55.4287ZM147.069 54.5851L147.681 54.0942L147.676 54.088L147.671 54.0821L147.069 54.5851ZM144.532 51.5483L145.135 51.0452L145.131 51.0407L144.532 51.5483ZM140.812 47.1617L132.972 53.6325L140.21 47.6644L132.972 53.2159L140.812 47.1617ZM139.29 45.3059L139.897 44.8083L139.893 44.8028L139.29 45.3059ZM136.754 42.2691L129.864 49.9376L136.138 42.7568L136.151 42.7722L136.754 42.2691ZM136.078 41.4475L135.308 41.2424L135.317 41.2904L131.174 41.0391L136.078 41.4475ZM137.937 36.3642L138.527 36.8816L138.536 36.8719L138.544 36.8618L137.937 36.3642ZM140.981 32.6525L140.386 32.1411L140.38 32.1479L140.374 32.1548L140.981 32.6525ZM143.01 30.2905L143.605 30.8019L143.61 30.7968L143.614 30.7916L143.01 30.2905ZM147.069 25.3979L147.672 25.8989L147.682 25.8873L147.692 25.8752L147.069 25.3979ZM149.267 22.5297L148.65 22.0446L148.644 22.0523L149.267 22.5297ZM164.654 2.95908L165.271 3.44415L166.251 2.19834L164.666 2.17438L164.654 2.95908ZM153.494 2.79037L153.506 2.00567L153.131 2L152.891 2.28841L153.494 2.79037ZM124.917 28.266L124.335 28.7916L124.349 28.807L124.363 28.8216L124.917 28.266ZM123.396 26.5788L122.795 27.085L122.804 27.0949L122.812 27.1045L123.396 26.5788ZM120.69 23.3733L121.289 22.8671L121.28 22.8557L121.27 22.8448L120.69 23.3733ZM119.289 21.2532L119.579 20.9889L119.567 20.9751L119.553 20.9619L119.289 21.2532ZM110.378 27.352L109.876 27.8785L109.778 27.7629L110.378 27.352ZM117.984 45.3059L117.407 44.775L117.394 44.7886L117.382 44.8028L117.984 45.3059ZM112.912 51.3796L113.512 51.885L113.514 51.8827L112.912 51.3796ZM109.361 55.5974L109.948 56.1183L109.954 56.1106L109.961 56.1028L109.361 55.5974ZM89.746 77.6988L89.1588 77.1778L88 78.4834H89.746V77.6988ZM103.704 78.2045L125.72 52.0783L130.068 32.9071L98 68.5L103.704 78.2045ZM126.784 51.241L126.982 51.1423L126.281 49.7377L129.267 50.7921L126.784 51.241ZM127.656 50.9834H127.961V49.4138H127.656V50.9834ZM128.702 51.1033L128.728 51.112L129.223 49.6226L129.198 49.614L128.702 51.1033ZM129.911 51.9033L130.62 52.61L131.728 51.4989L131.02 50.7921L129.911 51.9033ZM130.591 52.5801L132.113 54.2672L133.278 53.2159L131.756 51.5288L130.591 52.5801ZM132.093 54.2446L134.63 57.2814L135.835 56.2753L133.298 53.2385L132.093 54.2446ZM134.632 57.2845L137.337 60.4901L138.537 59.4778L135.831 56.2722L134.632 57.2845ZM137.467 60.6122L138.144 61.1184L139.084 59.8617L138.408 59.3556L137.467 60.6122ZM138.263 61.1923L138.94 61.5297L139.64 60.1252L138.964 59.7878L138.263 61.1923ZM139.136 61.5971L139.982 61.7658L140.289 60.2266L139.444 60.0579L139.136 61.5971ZM140.136 61.781H141.995V60.2114H140.136V61.781ZM141.995 61.781H144.701V60.2114H141.995V61.781ZM144.701 61.781H145.598V60.2114H144.701V61.781ZM147.643 61.1627L147.672 61.1435L146.803 59.8366L146.774 59.8558L147.643 61.1627ZM147.672 61.1435L147.953 60.9564L147.084 59.6495L146.803 59.8366L147.672 61.1435ZM148.492 60.5165L148.529 60.4786L147.421 59.3676L147.383 59.4055L148.492 60.5165ZM149.424 58.7426L149.496 58.3135L147.948 58.0549L147.877 58.4841L149.424 58.7426ZM149.544 57.7315V57.6557H147.974V57.7315H149.544ZM149.219 56.2815L149.143 56.1293L147.74 56.8324L147.816 56.9847L149.219 56.2815ZM148.626 55.2946L148.372 54.9572L147.118 55.9002L147.372 56.2377L148.626 55.2946ZM148.357 54.9377L147.681 54.0942L146.456 55.0761L147.132 55.9197L148.357 54.9377ZM147.671 54.0821L146.826 53.0698L145.621 54.0759L146.466 55.0882L147.671 54.0821ZM146.826 53.0698L145.135 51.0452L143.93 52.0514L145.621 54.0759L146.826 53.0698ZM145.131 51.0407L143.271 48.8474L139.444 61.1923L146.63 61.1435L149.109 58.2489L145.131 51.0407ZM143.271 48.8474L141.41 46.6542L132.972 53.2159L139.444 61.1923L143.271 48.8474ZM141.419 46.6641L139.897 44.8083L131.451 51.7767L132.972 53.6325L141.419 46.6641ZM139.893 44.8028L138.202 42.7783L129.839 49.9082L131.53 51.9328L139.893 44.8028ZM138.202 42.7783L137.356 41.766L136.151 42.7722L129.839 49.9082L138.202 42.7783ZM137.381 41.7976L137.195 41.5492L128.154 46.5945L129.864 49.9376L137.381 41.7976ZM136.847 40.9339L136.734 40.3712L135.195 40.6797L135.308 41.2424L136.847 40.9339ZM136.844 39.176L136.875 39.0972L135.419 38.5131L135.387 38.5919L136.844 39.176ZM137.056 38.7332L137.159 38.5631L135.814 37.7542L135.712 37.9242L137.056 38.7332ZM137.686 37.841L138.527 36.8816L137.348 35.8467L136.506 36.8062L137.686 37.841ZM138.544 36.8618L140.066 35.0059L138.853 34.0107L137.33 35.8665L138.544 36.8618ZM140.066 35.0059L141.588 33.1501L140.374 32.1548L138.853 34.0107L140.066 35.0059ZM141.577 33.1639L143.605 30.8019L142.415 29.7791L140.386 32.1411L141.577 33.1639ZM143.614 30.7916L147.672 25.8989L146.464 24.8968L142.406 29.7895L143.614 30.7916ZM147.692 25.8752L149.89 23.0071L148.644 22.0523L146.446 24.9204L147.692 25.8752ZM149.883 23.0148L165.271 3.44415L164.666 2.17438L148.65 22.0446L149.883 23.0148ZM164.666 2.17438L153.506 2.00567L148.542 8.78947L159.703 8.95819L164.666 2.17438ZM152.891 2.28841L130.913 28.7025L128.154 48.6028L161 8.5L152.891 2.28841ZM130.294 29.2585L130.284 29.2655L131.153 30.5723L119.823 43.9239L130.294 29.2585ZM127.987 29.6376L127.947 29.6268L127.535 31.1412L127.574 31.1521L127.987 29.6376ZM126.624 28.8609L125.472 27.7104L124.363 28.8216L125.516 29.972L126.624 28.8609ZM125.5 27.7403L123.978 26.0532L122.812 27.1045L124.335 28.7916L125.5 27.7403ZM123.995 26.0727L121.289 22.8671L120.09 23.8795L122.795 27.085L123.995 26.0727ZM121.27 22.8448L119.579 20.9889L118.419 22.046L120.11 23.9019L121.27 22.8448ZM119.553 20.9619L119.24 20.6485L118.13 21.7597L118.445 22.0731L119.553 20.9619ZM115.363 19.0456H113.757L114 24.8533L117.5 22.4052L115.363 19.0456ZM113.757 19.0456H111.704V20.6151L114 24.8533L113.757 19.0456ZM110.593 19.1553L110.085 19.2567L113.5 23.3275V23.5L110.593 19.1553ZM107.546 21.1931L107.439 21.4061L114 23.486L113.942 23.4676L107.546 21.1931ZM107.439 24.6657L107.586 24.9578L108.934 24.2518L115.826 23.711L107.439 24.6657ZM108.245 25.9555L109.876 27.8785L111 27L118.445 22.0731L108.245 25.9555ZM109.778 27.7629L118.952 38.5225L130 32.5L119.289 21.2532L109.778 27.7629ZM119.574 39.5242L119.616 39.6216L121.059 39.0021L121.017 44.4322L119.574 39.5242ZM119.449 42.393L119.406 42.4681L130.068 32.9071L120.811 43.173L119.449 42.393ZM118.937 43.1096L117.407 44.775L118.562 45.8369L120.092 44.1715L118.937 43.1096ZM117.382 44.8028L112.309 50.8765L113.514 51.8827L118.586 45.809L117.382 44.8028ZM112.311 50.8741L108.76 55.0919L109.961 56.1028L113.512 51.885L112.311 50.8741ZM108.774 55.0765L89.1588 77.1778L89.746 78.4834L90.3332 78.2193L109.948 56.1183L108.774 55.0765ZM89.746 78.4834H102.935L110.5 69H97.3109L89.746 78.4834ZM107.586 24.9578C107.765 25.3155 107.987 25.6504 108.245 25.9555L118.445 22.0731C118.267 21.8633 109.5 24 108.934 24.2518L107.586 24.9578ZM108.472 20.0264C108.086 20.3473 107.771 20.7445 107.546 21.1931L113.942 23.4676C114.069 23.2127 113.109 23.4551 113.328 23.2728L108.472 20.0264ZM110.085 19.2567C109.492 19.3751 108.937 19.6397 108.472 20.0264L113.328 23.2728C113.592 23.053 113.163 23.3947 113.5 23.3275L110.085 19.2567ZM111.704 19.0456C111.331 19.0456 110.959 19.0823 110.593 19.1553L113.5 23.5C113.765 23.4472 112.5 21.5 111.704 20.6151V19.0456ZM116.343 19.1337C116.019 19.0751 115.692 19.0456 115.363 19.0456L117.5 22.4052C117.735 22.4052 117.569 22.1711 117.77 22.1351L116.343 19.1337ZM119.24 20.6485C118.45 19.8611 117.44 19.3327 116.343 19.1337L117.77 22.1351C118.554 22.2772 119 21.5 118.13 21.7597L119.24 20.6485ZM127.947 29.6268C127.447 29.4908 126.991 29.2268 126.624 28.8609L125.516 29.972C126.076 30.5306 126.772 30.9336 127.535 31.1412L127.947 29.6268ZM127.961 50.9834C128.213 50.9834 128.463 51.0239 128.702 51.1033L129.198 49.614C128.799 49.4814 128.381 49.4138 127.961 49.4138V50.9834ZM129.334 29.6696C128.889 29.7683 128.426 29.7573 127.987 29.6376L127.574 31.1521C128.26 31.3386 129.146 33.0608 129.839 32.9071L129.334 29.6696ZM127.18 51.0606C127.334 51.0094 127.494 50.9834 127.656 50.9834V49.4138C127.326 49.4138 126.998 49.467 126.684 49.5712L127.18 51.0606ZM130.913 28.7025C130.734 28.9168 130.526 29.1041 130.294 29.2585L119.823 43.9239C120.182 43.6853 127.879 48.9338 128.154 48.6028L130.913 28.7025ZM136.693 39.9581C136.693 39.6901 136.744 39.4247 136.844 39.176L135.387 38.5919C135.213 39.0263 135.124 39.4901 135.124 39.9581H136.693ZM136.734 40.3712C136.707 40.2351 136.693 40.0968 136.693 39.9581H135.124C135.124 40.2004 135.147 40.4421 135.195 40.6797L136.734 40.3712ZM137.195 41.5492C137.033 41.3343 136.907 41.0946 136.822 40.8394L131.174 41.0391C131.313 41.4544 127.891 46.2445 128.154 46.5945L137.195 41.5492ZM118.952 38.5225C119.209 38.8233 119.419 39.161 119.574 39.5242L121.017 44.4322C120.798 43.9244 130.359 32.9206 130 32.5L118.952 38.5225ZM148.529 60.4786C148.773 60.2358 148.976 59.9554 149.129 59.648L147.726 58.9448C147.647 59.1012 147.545 59.244 147.421 59.3676L148.529 60.4786ZM147.953 60.9564C148.147 60.8278 148.327 60.6805 148.492 60.5165L147.383 59.4055C147.292 59.4965 147.191 59.5781 147.084 59.6495L147.953 60.9564ZM136.875 39.0972C136.926 38.9712 136.986 38.8494 137.056 38.7332L135.712 37.9242C135.598 38.1124 135.501 38.3093 135.419 38.5131L136.875 39.0972ZM107.439 21.4061C107.186 21.912 107.054 22.47 107.054 23.0358L114.142 23.711C114.142 23.3893 113.856 23.7736 114 23.486L107.439 21.4061ZM145.598 61.781C145.84 61.781 146.082 61.7571 146.32 61.7096L146.013 60.1703C145.877 60.1976 145.737 60.2114 145.598 60.2114V61.781ZM137.159 38.5631C137.313 38.3072 137.489 38.0656 137.686 37.841L136.506 36.8062C136.248 37.1009 136.016 37.4182 135.814 37.7542L137.159 38.5631ZM107.054 23.0358C107.054 23.6017 107.186 24.1598 107.439 24.6657L115.826 23.711C115.683 23.4234 114.142 24.0327 114.142 23.711L107.054 23.0358ZM146.32 61.7096C146.793 61.6153 147.242 61.4295 147.643 61.1627L146.774 59.8558C146.544 60.0093 146.285 60.1161 146.013 60.1703L146.32 61.7096ZM128.684 51.0962C129.144 51.2795 129.561 51.5541 129.911 51.9033L131.02 50.7921C130.52 50.2929 129.923 49.9004 129.267 49.6384L128.684 51.0962ZM149.143 56.1293C148.996 55.8362 148.823 55.5568 148.626 55.2946L147.372 56.2377C147.511 56.4245 147.635 56.6236 147.74 56.8324L149.143 56.1293ZM119.406 42.4681C119.274 42.6987 119.116 42.9139 118.937 43.1096L120.092 44.1715C120.351 43.8898 129.877 33.239 130.068 32.9071L119.406 42.4681ZM149.386 56.6838C149.34 56.546 149.285 56.4115 149.219 56.2815L147.816 56.9847C147.848 57.0482 147.875 57.1138 147.897 57.1812L149.386 56.6838ZM126.982 51.1423C127.045 51.1104 127.111 51.0831 127.18 51.0606L126.684 49.5712C126.546 49.6171 126.412 49.6728 126.281 49.7377L126.982 51.1423ZM119.841 41.2156C119.789 41.6292 119.654 42.0336 119.449 42.393L120.811 43.173C121.122 42.6312 121.321 42.0276 121.398 41.4108L119.841 41.2156ZM149.544 57.6557C149.544 57.3253 149.49 56.9972 149.386 56.6838L147.897 57.1812C147.949 57.3342 147.974 57.4944 147.974 57.6557H149.544ZM126.273 51.5558C126.434 51.4358 126.605 51.3305 126.784 51.241L129.267 50.7921C129.003 50.9236 136.97 40.7801 136.734 40.9564L126.273 51.5558ZM130.284 29.2655C129.995 29.4576 129.673 29.5945 129.334 29.6696L129.839 32.9071C130.367 32.7901 130.706 31.0986 131.153 30.5723L130.284 29.2655ZM119.616 39.6216C119.713 39.847 119.783 40.0835 119.823 40.3256L121.372 40.067C121.31 39.7008 121.205 39.3433 121.059 39.0021L119.616 39.6216ZM149.129 59.648C149.272 59.3628 149.372 59.0575 149.424 58.7426L147.877 58.4841C147.849 58.6443 147.799 58.7996 147.726 58.9448L149.129 59.648ZM119.823 40.3256C119.872 40.6173 119.878 40.9203 119.841 41.2156L121.398 41.4108C121.454 40.9664 121.445 40.5106 121.372 40.067L119.823 40.3256ZM149.496 58.3135C149.528 58.1211 149.544 57.9265 149.544 57.7315H147.974C147.974 57.8398 147.966 57.9479 147.948 58.0549L149.496 58.3135ZM125.72 52.0783C125.884 51.8836 126.07 51.7083 126.273 51.5558L136.734 40.9564C136.435 41.1805 130.308 32.6211 130.068 32.9071L125.72 52.0783Z" fill="#F0BD1A"/>
</g>
<defs>
<clipPath id="clip0_229_24">
<rect width="317.67" height="80" fill="white"/>
</clipPath>
</defs>
</svg>
