<svg width="35" height="33" viewBox="0 0 35 33" fill="none" xmlns="http://www.w3.org/2000/svg">
    <path d="M18.5089 12.5669L28.2053 1.07728C28.2085 1.07354 28.2124 1.07048 28.2168 1.06829C28.2508 1.05128 28.2387 1 28.2006 1H10.9797C10.9144 1 10.8493 1.00645 10.7854 1.01924L10.1655 1.14321L8.81533 1.54827C8.76081 1.56462 8.70781 1.58564 8.6569 1.6111L6.80181 2.53864C6.75298 2.56305 6.70626 2.59146 6.66212 2.62356L5.21601 3.67528C5.17415 3.70572 5.13474 3.7394 5.09814 3.77599L4.00744 4.8667L2.85302 6.29275C2.81121 6.3444 2.77469 6.40012 2.74404 6.45908L1.89541 8.09106C1.87135 8.13732 1.85098 8.18541 1.8345 8.23488L1.31101 9.80533C1.29464 9.85443 1.28215 9.90474 1.27364 9.95579L1.01348 11.5167C1.00451 11.5706 1 11.6251 1 11.6796V13.3162L1.20192 15.268C1.21048 15.3508 1.22944 15.4322 1.25835 15.5103L1.90416 17.254C1.92194 17.302 1.94341 17.3485 1.96839 17.3932L3.22071 19.6342C3.26757 19.7181 3.32638 19.7947 3.39528 19.8616L4.54448 20.978L5.71012 22.1103C5.7682 22.1667 5.83299 22.2158 5.90302 22.2565L7.8961 23.4138C7.97653 23.4605 8.06314 23.4956 8.15336 23.5182L8.55819 23.6194C8.92788 23.7118 9.31782 23.584 9.56117 23.2908L14.2199 17.6764C14.5259 17.3077 14.5243 16.773 14.2161 16.4061L8.59753 9.71734C8.05595 9.0726 8.51432 8.08895 9.35634 8.08895H12.7158C13.0059 8.08895 13.2814 8.21603 13.4697 8.43667L16.9977 12.5711C17.3947 13.0364 18.1144 13.0344 18.5089 12.5669Z" fill="#F0BD1A" stroke="url(#paint0_linear_383_131)" stroke-width="0.0990991"/>
    <path d="M16.7167 21.2251L7.02025 32.7147C7.01709 32.7185 7.0132 32.7215 7.00882 32.7237C6.9748 32.7407 6.98691 32.792 7.02494 32.792H24.2459C24.3111 32.792 24.3762 32.7855 24.4402 32.7727L25.0601 32.6488L26.4103 32.2437C26.4648 32.2274 26.5178 32.2063 26.5687 32.1809L28.4238 31.2533C28.4726 31.2289 28.5193 31.2005 28.5635 31.1684L30.0096 30.1167C30.0514 30.0863 30.0908 30.0526 30.1274 30.016L31.2182 28.9253L32.3726 27.4992C32.4144 27.4476 32.4509 27.3919 32.4816 27.3329L33.3302 25.7009C33.3542 25.6547 33.3746 25.6066 33.3911 25.5571L33.9146 23.9867C33.9309 23.9376 33.9434 23.8873 33.9519 23.8362L34.2121 22.2753C34.2211 22.2214 34.2256 22.1669 34.2256 22.1123V20.4758L34.0237 18.5239C34.0151 18.4412 33.9961 18.3598 33.9672 18.2817L33.3214 16.538C33.3036 16.49 33.2822 16.4435 33.2572 16.3988L32.0049 14.1578C31.958 14.0739 31.8992 13.9973 31.8303 13.9304L30.6811 12.814L29.5155 11.6817C29.4574 11.6253 29.3926 11.5762 29.3226 11.5355L27.3295 10.3782C27.2491 10.3315 27.1624 10.2964 27.0722 10.2738L26.6674 10.1726C26.2977 10.0802 25.9078 10.208 25.6644 10.5012L21.0056 16.1156C20.6997 16.4843 20.7013 17.019 21.0095 17.3859L26.6281 24.0746C27.1696 24.7194 26.7113 25.703 25.8692 25.703H22.5097C22.2197 25.703 21.9442 25.576 21.7559 25.3553L18.2279 21.2209C17.8308 20.7556 17.1112 20.7576 16.7167 21.2251Z" fill="#F0BD1A" stroke="url(#paint1_linear_383_131)" stroke-width="0.0990991"/>
    <defs>
        <linearGradient id="paint0_linear_383_131" x1="6.84591" y1="-3.1193" x2="28.9722" y2="16.4854" gradientUnits="userSpaceOnUse">
            <stop stop-color="#18215C"/>
            <stop offset="0.2" stop-color="#242A66"/>
            <stop offset="0.55" stop-color="#574891"/>
            <stop offset="0.77" stop-color="#7D4E94"/>
            <stop offset="1" stop-color="#B66F9B"/>
        </linearGradient>
        <linearGradient id="paint1_linear_383_131" x1="28.3797" y1="36.9113" x2="6.25338" y2="17.3065" gradientUnits="userSpaceOnUse">
            <stop stop-color="#18215C"/>
            <stop offset="0.2" stop-color="#242A66"/>
            <stop offset="0.55" stop-color="#574891"/>
            <stop offset="0.77" stop-color="#7D4E94"/>
            <stop offset="1" stop-color="#B66F9B"/>
        </linearGradient>
    </defs>
</svg>
