<svg width="19" height="18" viewBox="0 0 19 18" fill="none" xmlns="http://www.w3.org/2000/svg">
<path d="M10.6032 6.68839L15.3694 1.04082C15.371 1.03884 15.3731 1.03722 15.3754 1.03607C15.3934 1.02708 15.387 1 15.3669 1H6.3174C6.25214 1 6.18704 1.00645 6.12305 1.01924L5.84106 1.07564L5.16657 1.27799C5.11206 1.29434 5.05905 1.31536 5.00815 1.34082L4.09902 1.79538C4.0502 1.81979 4.00348 1.84819 3.95933 1.8803L3.25649 2.39146C3.21463 2.4219 3.17522 2.45557 3.13863 2.49217L2.58847 3.04232L2.0084 3.75889C1.96659 3.81054 1.93007 3.86626 1.89942 3.92522L1.48999 4.71258C1.46593 4.75884 1.44557 4.80693 1.42908 4.8564L1.17587 5.61601C1.1595 5.66512 1.14701 5.71542 1.1385 5.76648L1.01348 6.51658C1.00451 6.57042 1 6.62491 1 6.67949V7.50518L1.10056 8.47731C1.10913 8.56009 1.12809 8.64147 1.157 8.71952L1.46496 9.55103C1.48274 9.59903 1.50421 9.64559 1.52918 9.69027L2.1396 10.7826C2.18646 10.8665 2.24527 10.9431 2.31417 11.01L2.87213 11.552L3.44654 12.11C3.50462 12.1664 3.5694 12.2155 3.63943 12.2562L4.60741 12.8182C4.6731 12.8564 4.74384 12.8851 4.81754 12.9035C5.1195 12.979 5.438 12.8747 5.63676 12.6351L7.73326 10.1086C8.03918 9.73989 8.03757 9.20517 7.72944 8.83835L5.65826 6.37265C5.11668 5.72791 5.57504 4.74426 6.41706 4.74426H6.97242C7.26248 4.74426 7.53798 4.87134 7.72626 5.09198L9.09205 6.69252C9.4891 7.15781 10.2087 7.15584 10.6032 6.68839Z" fill="black" stroke="url(#paint0_linear_373_25)" stroke-width="0.0990991"/>
<path d="M8.94659 12.1036L4.18043 17.7512C4.17876 17.7532 4.17671 17.7548 4.17439 17.7559C4.15642 17.7649 4.16282 17.792 4.18291 17.792H13.2324C13.2977 17.792 13.3628 17.7855 13.4268 17.7727L13.7087 17.7164L14.3832 17.514C14.4377 17.4976 14.4908 17.4766 14.5417 17.4512L15.4508 16.9966C15.4996 16.9722 15.5463 16.9438 15.5905 16.9117L16.2933 16.4005C16.3352 16.3701 16.3746 16.3364 16.4112 16.2998L16.9613 15.7497L17.5414 15.0331C17.5832 14.9815 17.6197 14.9257 17.6504 14.8668L18.0598 14.0794C18.0839 14.0332 18.1042 13.9851 18.1207 13.9356L18.3739 13.176C18.3903 13.1269 18.4028 13.0766 18.4113 13.0255L18.5363 12.2754C18.5453 12.2216 18.5498 12.1671 18.5498 12.1125V11.2868L18.4492 10.3147C18.4407 10.2319 18.4217 10.1505 18.3928 10.0725L18.0848 9.24096C18.0671 9.19296 18.0456 9.14641 18.0206 9.10172L17.4102 8.0094C17.3633 7.92554 17.3045 7.84894 17.2356 7.78201L16.6777 7.23999L16.1033 6.68199C16.0452 6.62557 15.9804 6.57647 15.9104 6.53581L14.9424 5.97376C14.8767 5.93562 14.806 5.90691 14.7323 5.88849C14.4303 5.813 14.1118 5.91734 13.913 6.15687L11.8165 8.68343C11.5106 9.0521 11.5122 9.58682 11.8204 9.95365L13.8915 12.4193C14.4331 13.0641 13.9748 14.0477 13.1327 14.0477H12.5774C12.2873 14.0477 12.0118 13.9207 11.8235 13.7L10.4578 12.0995C10.0607 11.6342 9.34109 11.6361 8.94659 12.1036Z" fill="black" stroke="url(#paint1_linear_373_25)" stroke-width="0.0990991"/>
<defs>
<linearGradient id="paint0_linear_373_25" x1="4.08771" y1="-1.17574" x2="15.7744" y2="9.17914" gradientUnits="userSpaceOnUse">
<stop stop-color="#18215C"/>
<stop offset="0.2" stop-color="#242A66"/>
<stop offset="0.55" stop-color="#574891"/>
<stop offset="0.77" stop-color="#7D4E94"/>
<stop offset="1" stop-color="#B66F9B"/>
</linearGradient>
<linearGradient id="paint1_linear_373_25" x1="15.4621" y1="19.9677" x2="3.77538" y2="9.61286" gradientUnits="userSpaceOnUse">
<stop stop-color="#18215C"/>
<stop offset="0.2" stop-color="#242A66"/>
<stop offset="0.55" stop-color="#574891"/>
<stop offset="0.77" stop-color="#7D4E94"/>
<stop offset="1" stop-color="#B66F9B"/>
</linearGradient>
</defs>
</svg>
