<svg width="185" height="185" viewBox="0 0 185 185" fill="none" xmlns="http://www.w3.org/2000/svg">
<circle cx="92.468" cy="92.7344" r="62.4226" transform="rotate(-45 92.468 92.7344)" stroke="#F0BD1A" stroke-width="5.54868"/>
<path d="M87.4748 131.178C87.462 132.71 88.6937 133.963 90.2259 133.975C91.7581 133.988 93.0105 132.756 93.0233 131.224L87.4748 131.178ZM92.8229 57.6982C91.7486 56.6058 89.992 56.5912 88.8996 57.6656L71.0974 75.1737C70.005 76.2481 69.9903 78.0047 71.0647 79.0971C72.1391 80.1895 73.8957 80.2041 74.9881 79.1298L90.8123 63.567L106.375 79.3911C107.449 80.4836 109.206 80.4982 110.298 79.4238C111.391 78.3494 111.405 76.5929 110.331 75.5004L92.8229 57.6982ZM93.0233 131.224L93.6192 59.6667L88.0707 59.6205L87.4748 131.178L93.0233 131.224Z" fill="#F0BD1A"/>
</svg>
